<?xml version="1.0" encoding="UTF-8"?>
<svg width="512" height="512" version="1.1" viewBox="0 0 480 480" xml:space="preserve" xmlns="http://www.w3.org/2000/svg"><path d="m352.09 289.23h5e-5c19.249 9.112 38.498 18.224 57.746 27.336 2.79 3.8776 4.9186 8.3642 7.4562 12.474-6.9624-1.2281-13.925-2.4562-20.887-3.6844-5.6066-2.1653-10.82-5.086-16.274-7.5431-0.47326 5.5959-0.94643 11.192-1.4197 16.788-2.0106 4.5801-4.6517 9.0909-6.903 13.645-2.3786-4.1079-4.7581-8.2154-7.1372-12.323 0.69249-8.1329 1.385-16.266 2.0775-24.399-2.8952 1.5973-5.7905 3.1947-8.6857 4.792-2.3228-4.0112-4.6461-8.022-6.9692-12.033-0.0589-4.8942 0.72922-10.055 0.99642-15.052z" fill="#00802b"/><path d="m376.15 298.92 7.1371 12.323 28.182-6.7226 17.457 1.2981 15.122 0.74094-7.1371-12.323-9.7817-3.1652 18.408-1.6718 1.0511-14.699-7.1372-12.323z" fill="#050"/><path d="m400.8 283.15-1.4e-4 1e-5c1.745-21.343 3.4909-42.687 5.2359-64.03 4.3687 2.0142 8.7373 4.0284 13.106 6.0426 2.7948 3.8706 4.9192 8.3632 7.4582 12.471-2.8644 1.6184-5.7288 3.2368-8.5932 4.8553 5.6547-3.2478 11.309-6.4955 16.964-9.7433 2.1024 0.99632 4.2048 1.9926 6.3072 2.989 2.678 3.6843 4.6944 7.9776 7.1201 11.894 0.6993 2.4366-0.3092 5.4099-0.26604 8.0527-10.43 0.512-20.859 1.024-31.289 1.536-0.46907 5.5901-0.93814 11.18-1.4072 16.77-2.1205 7.1782-5.062 14.321-7.4989 21.485-2.3786-4.1079-4.7581-8.2154-7.1371-12.323z" fill="#00802b"/><path d="m343.23 230.14 7.1371 12.323 50.927 15.163 8.3014-2.4373-7.1372-12.323-15.823-7.5327 9.2146-12.076-7.1371-12.323-6.7817-3.2002-7.2267 4.17-1.4496 17.141-15.548-7.4161z" fill="#050"/><path d="m312.26 303.57-0.60204 7.4726 7.1371 12.323 6.6279 3.14 8.8873-15.706-0.51646 10.818 7.1372 12.323 6.2883-6.1339 12.374-51.705-7.1371-12.323-14.579 8.4588-1.4663 17.474z" fill="#050"/><path d="m202.98 189.05-32.222 2.6817 61.002 105.67 18.177-26.811-16.577-28.876 30.286-44.176-7.1371-12.323-15.998 1.1884-21.26 31.043zm-54.889 74.789-32.321 2.4899-21.658 31.659-53.376 3.8324-9.2209 13.562 6.9591 12.065 1.1604 2.1007 36.339-4.8098-21.313 31.11 14.289 24.122 86.277-103.81zm-1.8689 88.249 14.144 24.323 38.235-2.7848 23.088 40.345 16.36-1.239 9.0388-13.255-16.239-28.332 37.584-2.7122 25.069-14.48-7.1371-12.323z" fill="#800000"/><path d="m128.87 194.61-16.358 1.2374-9.0406 13.255 16.239 28.334-37.584 2.7107-17.931 26.802 7.1371 12.323 133-22.781-14.144-24.323-38.233 2.7846zm152.85 34.227-79.139 116.13 7.1371 12.323 25.184-14.813 21.656-31.659 53.376-3.8324 9.2209-13.562-6.9576-12.067-37.5 2.7108 21.313-31.11zm-162.65 82.571-18.177 26.813 16.577 28.874-30.286 44.176 7.137 12.325 0.98218 1.8412 15.016-3.0314 21.26-31.043 16.271 28.4 32.221-2.6801z" fill="#500"/><path d="m315.01 269.71c5.6673-3.2546 11.335-6.5091 17.002-9.7637-2.7925 1.6423-5.585 3.2845-8.3774 4.9269-1.9308-3.3343-3.8621-6.6684-5.7932-10.003-2.3446-2.5526-0.68199-6.3617-0.74283-9.6304l7.3837-4.2722c7.3581 3.5133 14.716 7.0265 22.074 10.54 5.7631-3.3143 11.526-6.6287 17.289-9.943 4.4715 2.1011 13.414 6.3032 13.414 6.3032l7.1371 12.323s-46.971 22.335-63.301 36.543c-2.3228-4.0112-4.6461-8.022-6.9691-12.033-0.0927-4.8738 0.65379-10.015 0.88323-14.991z" fill="#00802b"/><path d="m210.11 201.37-32.222 2.6817 61.002 105.67 18.177-26.811-16.577-28.876 30.286-44.176-7.1371-12.323-15.998 1.1884-21.26 31.043zm-54.889 74.789-32.321 2.4899-21.658 31.659-53.376 3.8324-9.2209 13.562 6.9591 12.065 37.5-2.7092-21.313 31.11 14.289 24.122zm-1.8689 88.249 14.144 24.323 38.235-2.7848 23.088 40.345 16.36-1.2391 9.0388-13.255-16.239-28.332 37.584-2.7123 17.932-26.802z" fill="#f00"/><path d="m136 206.94-16.358 1.2374-9.0406 13.255 16.239 28.334-37.584 2.7106-17.931 26.802 140.14-10.458-14.144-24.323-38.233 2.7846zm152.85 34.227-79.139 116.13 32.321-2.4899 21.656-31.659 53.376-3.8324 9.2209-13.562-6.9576-12.067-37.5 2.7108 21.313-31.11zm-162.65 82.571-18.177 26.813 16.577 28.874-30.286 44.176 7.137 12.325 15.998-1.1902 21.26-31.043 16.271 28.4 32.221-2.6801z" fill="#a00"/><path d="m322.15 282.03-1.0512 14.701 63.301-36.543-13.414-6.3032-17.289 9.943-22.074-10.54-7.3837 4.2722-0.60112 7.3099 15.515 7.3963zm37.085 19.517-1.1644 14.762 15.823 7.5311-2.0775 24.399 6.7817 3.2002 7.2286-4.17 1.4494-17.14 15.546 7.4146 14.478-8.5103zm48.709-6.0778 14.577-8.4586 1.4663-17.474 24.152-13.859 0.60203-7.4725-6.6261-3.1401-16.964 9.7433 1.456-17.178-13.427-6.1906z" fill="#0f5"/><path d="m319.39 315.89-0.60203 7.4726 6.6279 3.14 16.962-9.7432-1.4543 17.178 13.425 6.1892 5.2368-64.029-14.579 8.4588-1.4663 17.474zm30.975-73.426 58.064 27.486 1.1643-14.76-15.823-7.5327 2.0775-24.399-6.7817-3.2002-7.2272 4.1692-1.4496 17.141-15.548-7.4161zm32.915 68.773 13.415 6.3016 17.289-9.943 22.072 10.54 7.385-4.273 0.59921-7.3097-15.513-7.3964 17.002-9.7637 1.0511-14.699z" fill="#0a0"/><path d="m139.96 143.67 5e-5 -1e-5c24.477 11.587 48.955 23.174 73.432 34.762 3.5478 4.9309 1.7166 2.8009 4.9435 8.0273-8.8536-1.5617-13.169 4.7118-22.023 3.15-7.1295-2.7535-13.759-6.4675-20.695-9.592-0.60183 7.116-1.2035 14.232-1.8054 21.348-2.5568 5.8242-10.453 3.7251-13.316 9.5157l-4.5382-7.8351 2.6418-31.026c-3.6817 2.0312-11.901-3.7728-15.583-1.7416-2.9537-5.1007-1.3703-2.3658-4.324-7.4666-0.0749-6.2236 0.92729-12.786 1.2671-19.141z" fill="#2b2b80"/><path d="m177.91 40.04-9.1904 5.3017-1.8433 21.797-19.771-9.4306-18.409 10.824 73.836 34.952 1.4806-18.77-20.121-9.5788 2.6418-31.026zm-37.487 71.263-18.539 10.756-1.8646 22.221-30.712 17.624-0.76557 9.5023 8.4283 3.9929 21.57-12.39-1.8493 21.844 17.072 7.8704zm110.62-1.785-80.496 46.47 4.5383 7.8351 39.044-4.6305 23.53 5.5677 14.691-6.893-4.5382-7.8351-10.542-5.0271 16.974-8.959 1.3366-18.692z" fill="#005"/><path d="m201.9 135.94-1.8e-4 1e-5 6.6582-81.423 16.666 7.684 4.9462 8.0235-6.3894 14.009 21.572-12.39 8.0204 3.8009 4.9435 8.0275-0.76557 9.5023-35.25 9.7884-1.7895 21.326-14.074 19.486z" fill="#2b2b80"/><path d="m128.69 68.53 4.5383 7.835 69.298 27.116 6.0185-10.935-4.5382-7.835-20.121-9.5788 7.1797-23.191-4.5382-7.8351-8.6239-4.0695-9.1898 5.3028-1.8433 21.797-19.771-9.4306z" fill="#005"/><path d="m89.31 161.9-0.76559 9.5023 4.5382 7.8351 8.4283 3.9929 15.839-12.138-0.65676 13.757 4.5383 7.835 12.534 0.0353 11.197-73.586-4.5383-7.835-18.539 10.756-1.8645 22.221z" fill="#005"/><path d="m92.81 118.85 21.62-12.416-15.191-1.5701-4.5382-7.835 0.76442-9.2955 9.3893-5.4327 28.07 13.403 21.985-12.644 17.058 8.0154 4.5382 7.8351-80.496 46.47-4.324-7.4665z" fill="#2b2b80"/><path d="m97.34 126.68-1.3368 18.694 80.496-46.47-17.058-8.0154-21.985 12.644-28.07-13.403-9.3893 5.4327-0.76441 9.2955 19.729 9.4054zm47.158 24.818-1.4807 18.772 20.121 9.5768-2.6418 31.026 8.6239 4.0695 9.1921-5.3027 1.8431-21.795 19.769 9.4287 18.411-10.822zm61.94-7.7288 18.537-10.756 1.8646-22.221 30.712-17.624 0.76557-9.5023-8.426-3.9931-21.572 12.39 1.8515-21.845-17.074-7.8723z" fill="#55f"/><path d="m93.84 169.74-0.76559 9.5024 8.4283 3.9929 21.57-12.39-1.8493 21.844 17.072 7.8704 6.6592-81.421-18.539 10.756-1.8646 22.221zm39.389-93.371 73.836 34.952 1.4806-18.77-20.121-9.5788 2.6418-31.026-8.6239-4.0696-9.1904 5.3017-1.8433 21.797-19.771-9.4306zm41.856 87.454 17.058 8.0133 21.985-12.644 28.068 13.403 9.3911-5.4337 0.76196-9.2953-19.727-9.4055 21.621-12.416 1.3366-18.692z" fill="#00a"/></svg>
